<svg width="24" height="24" viewBox="0 0 24 24" fill="none" xmlns="http://www.w3.org/2000/svg">
<path d="M20 16V17.2C20 18.8802 20 19.7202 19.673 20.362C19.3854 20.9265 18.9265 21.3854 18.362 21.673C17.7202 22 16.8802 22 15.2 22H6.8C5.11984 22 4.27976 22 3.63803 21.673C3.07354 21.3854 2.6146 20.9265 2.32698 20.362C2 19.7202 2 18.8802 2 17.2V8.8C2 7.11984 2 6.27976 2.32698 5.63803C2.6146 5.07354 3.07354 4.6146 3.63803 4.32698C4.27976 4 5.11984 4 6.8 4H8M8.67663 17.6945L8.81581 17.6554C9.26572 17.5289 9.49068 17.4657 9.70048 17.3701C9.88677 17.2852 10.0639 17.1815 10.229 17.0606C10.4151 16.9244 10.5803 16.7592 10.9108 16.4287L21.2521 6.08757C22.1732 5.16641 22.1732 3.67289 21.2521 2.75172C20.3309 1.83056 18.8374 1.83056 17.9162 2.75171L7.57426 13.0935C7.24404 13.4237 7.07893 13.5889 6.9428 13.7747C6.82194 13.9398 6.71827 14.1167 6.63342 14.3028C6.53785 14.5125 6.47457 14.7372 6.348 15.1867L6.30884 15.3258C6.00554 16.403 5.85388 16.9416 5.99348 17.311C6.11519 17.633 6.36934 17.8873 6.69132 18.0091C7.06064 18.1489 7.5993 17.9974 8.67663 17.6945Z" stroke="white" stroke-width="2" stroke-linecap="round" stroke-linejoin="round"/>
</svg>
