<svg width="24" height="24" viewBox="0 0 24 24" fill="none" xmlns="http://www.w3.org/2000/svg">
<path d="M3 6H21M9.82324 11.3232L12 13.5M12 13.5L14.1768 15.6768M12 13.5L14.1768 11.3232M12 13.5L9.82324 15.6768M5 6H19V17.2C19 18.8802 19 19.7202 18.673 20.362C18.3854 20.9265 17.9265 21.3854 17.362 21.673C16.7202 22 15.8802 22 14.2 22H9.8C8.11984 22 7.27976 22 6.63803 21.673C6.07354 21.3854 5.6146 20.9265 5.32698 20.362C5 19.7202 5 18.8802 5 17.2V6ZM16 6L8 6C8 5.07003 8 4.60504 8.10222 4.22354C8.37962 3.18827 9.18827 2.37962 10.2235 2.10222C10.605 2 11.07 2 12 2C12.93 2 13.395 2 13.7765 2.10222C14.8117 2.37962 15.6204 3.18827 15.8978 4.22354C16 4.60504 16 5.07003 16 6Z" stroke="white" stroke-width="2" stroke-linecap="round"/>
</svg>
